<svg width="104" height="17" viewBox="0 0 104 17" fill="none" xmlns="http://www.w3.org/2000/svg">
<path d="M32.852 14.14C34.462 14.14 35.834 13.566 36.744 12.502L35.568 11.382C34.854 12.166 33.972 12.544 32.95 12.544C30.92 12.544 29.45 11.116 29.45 9.1C29.45 7.084 30.92 5.656 32.95 5.656C33.972 5.656 34.854 6.034 35.568 6.804L36.744 5.698C35.834 4.634 34.462 4.06 32.866 4.06C29.856 4.06 27.616 6.174 27.616 9.1C27.616 12.026 29.856 14.14 32.852 14.14ZM42.8608 14.14C45.8988 14.14 48.1388 12.012 48.1388 9.1C48.1388 6.188 45.8988 4.06 42.8608 4.06C39.8228 4.06 37.5828 6.202 37.5828 9.1C37.5828 11.998 39.8228 14.14 42.8608 14.14ZM42.8608 12.544C40.8868 12.544 39.4168 11.102 39.4168 9.1C39.4168 7.098 40.8868 5.656 42.8608 5.656C44.8348 5.656 46.3048 7.098 46.3048 9.1C46.3048 11.102 44.8348 12.544 42.8608 12.544ZM60.792 14L60.778 4.2H59.28L55.458 10.696L51.566 4.2H50.068V14H51.804V7.588L55.024 12.88H55.836L59.056 7.504L59.07 14H60.792ZM67.471 4.2H63.439V14H65.259V11.172H67.471C70.047 11.172 71.643 9.842 71.643 7.686C71.643 5.516 70.047 4.2 67.471 4.2ZM67.387 9.632H65.259V5.74H67.387C68.983 5.74 69.809 6.454 69.809 7.686C69.809 8.918 68.983 9.632 67.387 9.632ZM81.8325 14L79.5785 10.78C80.9085 10.262 81.6645 9.17 81.6645 7.686C81.6645 5.516 80.0685 4.2 77.4925 4.2H73.4605V14H75.2805V11.144H77.4925C77.6185 11.144 77.7445 11.144 77.8705 11.13L79.8725 14H81.8325ZM79.8305 7.686C79.8305 8.918 79.0045 9.646 77.4085 9.646H75.2805V5.74H77.4085C79.0045 5.74 79.8305 6.454 79.8305 7.686ZM91.0368 14H92.9408L88.5168 4.2H86.7248L82.3148 14H84.1908L85.1568 11.732H90.0568L91.0368 14ZM85.7728 10.304L87.6068 6.02L89.4548 10.304H85.7728ZM102.559 14L100.305 10.78C101.635 10.262 102.391 9.17 102.391 7.686C102.391 5.516 100.795 4.2 98.2191 4.2H94.1871V14H96.0071V11.144H98.2191C98.3451 11.144 98.4711 11.144 98.5971 11.13L100.599 14H102.559ZM100.557 7.686C100.557 8.918 99.7311 9.646 98.1351 9.646H96.0071V5.74H98.1351C99.7311 5.74 100.557 6.454 100.557 7.686Z" fill="white"/>
<path opacity="0.737212" fill-rule="evenodd" clip-rule="evenodd" d="M3 2L1 4.7V14.15C1 14.8956 1.59695 15.5 2.33333 15.5H11.6667C12.403 15.5 13 14.8956 13 14.15V4.7L11 2H3Z" stroke="white" stroke-width="2" stroke-linecap="round" stroke-linejoin="round"/>
<path opacity="0.737212" d="M1 5.375H13" stroke="white" stroke-width="2" stroke-linecap="round" stroke-linejoin="round"/>
<path opacity="0.737212" d="M10 8C10 9.24264 8.82475 10.25 7.375 10.25C5.92525 10.25 4.75 9.24264 4.75 8" stroke="white" stroke-width="2" stroke-linecap="round" stroke-linejoin="round"/>
</svg>
